{"title":"Agneepath (2012) DVDScr x264 ","uid":7005228,"size":317516535,"categoryP":"video","categoryS":"movies","magnet":"?xt=urn:btih:bf01ffd22a2c63fc293c7acc3ae761e0f11accdb&amp;dn=Agneepath+%282012%29+DVDScr+x264+&amp;tr=udp%3A%2F%2Ftracker.openbittorrent.com%3A80&amp;tr=udp%3A%2F%2Fopen.demonii.com%3A1337&amp;tr=udp%3A%2F%2Ftracker.coppersurfer.tk%3A6969&amp;tr=udp%3A%2F%2Fexodus.desync.com%3A6969","seeders":0,"leechers":0,"uploader":"pirate0610","files":-1,"time":1328243433,"description":"Agneepath (2012) DVDScr x264 \n\n\nVideo\nID                                       : 1\nFormat                                   : AVC\nFormat/Info                              : Advanced Video Codec\nFormat profile                           : &lt;a class=&quot;__cf_email__&quot; href=&quot;/cdn-cgi/l/email-protection&quot; data-cfemail=&quot;4f072628270f037d617e&quot;&gt;[email&amp;#160;protected]&lt;/a&gt;&lt;script cf-hash='f9e31' type=&quot;text/javascript&quot;&gt;\n/* &lt;![CDATA[ */!function(){try{var t=&quot;currentScript&quot;in document?document.currentScript:function(){for(var t=document.getElementsByTagName(&quot;script&quot;),e=t.length;e--;)if(t[e].getAttribute(&quot;cf-hash&quot;))return t[e]}();if(t&amp;&amp;t.previousSibling){var e,r,n,i,c=t.previousSibling,a=c.getAttribute(&quot;data-cfemail&quot;);if(a){for(e=&quot;&quot;,r=parseInt(a.substr(0,2),16),n=2;a.length-n;n+=2)i=parseInt(a.substr(n,2),16)^r,e+=String.fromCharCode(i);e=document.createTextNode(e),c.parentNode.replaceChild(e,c)}}}catch(u){}}();/* ]]&gt; */&lt;/script&gt;\nFormat settings, CABAC                   : Yes\nFormat settings, ReFrames                : 8 frames\nMuxing mode                              : Header stripping\nCodec ID                                 : V_MPEG4/ISO/AVC\nDuration                                 : 2h 35mn\nBit rate                                 : 251 Kbps\nWidth                                    : 608 pixels\nHeight                                   : 240 pixels\nDisplay aspect ratio                     : 2.533\nFrame rate                               : 23.976 fps\nColor space                              : YUV\nChroma subsampling                       : 4:2:0\nBit depth                                : 8 bits\nScan type                                : Progressive\nBits/(Pixel*Frame)                       : 0.072\nStream size                              : 276 MiB (91%)\nWriting library                          : x264 core\nDefault                                  : Yes\nForced                                   : No\n\nAudio\nID                                       : 2\nFormat                                   : Vorbis\nDuration                                 : 2h 35mn\nBit rate mode                            : Variable\nBit rate                                 : 18.0 Kbps\nChannel(s)                               : 2 channels\nSampling rate                            : 8 000 Hz\nCompression mode                         : Lossy\nStream size                              : 20.1 MiB (7%)\nDefault                                  : Yes\nForced                                   : No\n\n\n==Screens==\n &lt;a href=&quot;\nhttp://www.shotpix.com/images/87063111838605797806.jpg&quot; rel=&quot;nofollow&quot; target=&quot;_NEW&quot;&gt;\nhttp://www.shotpix.com/images/87063111838605797806.jpg&lt;/a&gt; &lt;a href=&quot;\nhttp://www.shotpix.com/images/32171568842459605050.jpg&quot; rel=&quot;nofollow&quot; target=&quot;_NEW&quot;&gt;\nhttp://www.shotpix.com/images/32171568842459605050.jpg&lt;/a&gt; &lt;a href=&quot;\nhttp://www.shotpix.com/images/64451572042070789418.jpg&quot; rel=&quot;nofollow&quot; target=&quot;_NEW&quot;&gt;\nhttp://www.shotpix.com/images/64451572042070789418.jpg&lt;/a&gt; &lt;a href=&quot;\nhttp://www.shotpix.com/images/41510972765719518898.jpg&quot; rel=&quot;nofollow&quot; target=&quot;_NEW&quot;&gt;\nhttp://www.shotpix.com/images/41510972765719518898.jpg&lt;/a&gt; &lt;a href=&quot;\nhttp://www.shotpix.com/images/33356341459909401935.jpg&quot; rel=&quot;nofollow&quot; target=&quot;_NEW&quot;&gt;\nhttp://www.shotpix.com/images/33356341459909401935.jpg&lt;/a&gt; &lt;a href=&quot;\nhttp://www.shotpix.com/images/77116154795304281651.jpg&quot; rel=&quot;nofollow&quot; target=&quot;_NEW&quot;&gt;\nhttp://www.shotpix.com/images/77116154795304281651.jpg&lt;/a&gt; &lt;a href=&quot;\nhttp://www.shotpix.com/images/43147759968899536347.jpg&quot; rel=&quot;nofollow&quot; target=&quot;_NEW&quot;&gt;\nhttp://www.shotpix.com/images/43147759968899536347.jpg&lt;/a&gt; ","torrent":{"xt":"urn:btih:bf01ffd22a2c63fc293c7acc3ae761e0f11accdb","amp;dn":"Agneepath+%282012%29+DVDScr+x264+","amp;tr":["udp%3A%2F%2Ftracker.openbittorrent.com%3A80","udp%3A%2F%2Fopen.demonii.com%3A1337","udp%3A%2F%2Ftracker.coppersurfer.tk%3A6969","udp%3A%2F%2Fexodus.desync.com%3A6969"],"infoHash":"bf01ffd22a2c63fc293c7acc3ae761e0f11accdb","infoHashBuffer":{"type":"Buffer","data":[191,1,255,210,42,44,99,252,41,60,122,204,58,231,97,224,241,26,204,219]},"announce":[],"urlList":[]}}